<svg width="800" height="500" xmlns="http://www.w3.org/2000/svg">
  <!-- 背景和标题 -->
  <rect width="800" height="500" fill="#f9f9f9" rx="10" ry="10"/>
  <text x="400" y="40" font-family="Arial" font-size="24" text-anchor="middle" font-weight="bold">验证码系统架构图</text>
  
  <!-- 客户端 -->
  <rect x="50" y="100" width="150" height="80" fill="#ffffff" stroke="#333333" stroke-width="2" rx="5" ry="5"/>
  <text x="125" y="145" font-family="Arial" font-size="16" text-anchor="middle">客户端</text>
  
  <!-- RESTful API -->
  <rect x="250" y="100" width="300" height="80" fill="#e3f2fd" stroke="#1976d2" stroke-width="2" rx="5" ry="5"/>
  <text x="400" y="130" font-family="Arial" font-size="16" text-anchor="middle" font-weight="bold">CaptchaController</text>
  <text x="400" y="150" font-family="Arial" font-size="14" text-anchor="middle">RESTful API接口</text>
  
  <!-- 策略工厂 -->
  <rect x="300" y="220" width="200" height="80" fill="#e8f5e9" stroke="#388e3c" stroke-width="2" rx="5" ry="5"/>
  <text x="400" y="260" font-family="Arial" font-size="16" text-anchor="middle" font-weight="bold">CaptchaStrategyFactory</text>
  
  <!-- 策略实现 -->
  <rect x="150" y="340" width="180" height="60" fill="#fff3e0" stroke="#f57c00" stroke-width="2" rx="5" ry="5"/>
  <text x="240" y="375" font-family="Arial" font-size="14" text-anchor="middle">ImageCaptchaStrategy</text>
  
  <rect x="420" y="340" width="180" height="60" fill="#fff3e0" stroke="#f57c00" stroke-width="2" rx="5" ry="5"/>
  <text x="510" y="375" font-family="Arial" font-size="14" text-anchor="middle">SmsCaptchaStrategy</text>
  
  <!-- 配置 -->
  <rect x="300" y="430" width="200" height="50" fill="#f3e5f5" stroke="#7b1fa2" stroke-width="2" rx="5" ry="5"/>
  <text x="400" y="460" font-family="Arial" font-size="16" text-anchor="middle">CaptchaConfig</text>
  
  <!-- Redis -->
  <rect x="600" y="100" width="150" height="80" fill="#fffde7" stroke="#ffd600" stroke-width="2" rx="5" ry="5"/>
  <text x="675" y="130" font-family="Arial" font-size="16" text-anchor="middle" font-weight="bold">Redis</text>
  <text x="675" y="150" font-family="Arial" font-size="14" text-anchor="middle">验证码存储</text>
  
  <!-- 箭头 -->
  <!-- 客户端到API -->
  <line x1="200" y1="140" x2="250" y2="140" stroke="#333333" stroke-width="2" marker-end="url(#arrowhead)"/>
  
  <!-- API到策略工厂 -->
  <line x1="400" y1="180" x2="400" y2="220" stroke="#333333" stroke-width="2" marker-end="url(#arrowhead)"/>
  
  <!-- 策略工厂到具体策略 -->
  <line x1="350" y1="300" x2="240" y2="340" stroke="#333333" stroke-width="2" marker-end="url(#arrowhead)"/>
  <line x1="450" y1="300" x2="510" y2="340" stroke="#333333" stroke-width="2" marker-end="url(#arrowhead)"/>
  
  <!-- 具体策略到Redis -->
  <line x1="330" y1="370" x2="600" y2="140" stroke="#333333" stroke-width="2" marker-end="url(#arrowhead)"/>
  <line x1="510" y1="370" x2="600" y2="160" stroke="#333333" stroke-width="2" marker-end="url(#arrowhead)"/>
  
  <!-- 配置到控制器 -->
  <line x1="400" y1="430" x2="400" y2="300" stroke="#333333" stroke-width="2" marker-end="url(#arrowhead)"/>
  
  <!-- 箭头标记 -->
  <defs>
    <marker id="arrowhead" markerWidth="10" markerHeight="7" refX="9" refY="3.5" orient="auto">
      <polygon points="0 0, 10 3.5, 0 7" fill="#333333"/>
    </marker>
  </defs>
</svg>