<?xml version="1.0" encoding="UTF-8" standalone="no"?>
<svg xmlns="http://www.w3.org/2000/svg" width="900" height="600" viewBox="0 0 900 600">
  <!-- 背景 -->
  <rect width="900" height="600" fill="#ffffff"/>
  
  <!-- 标题 -->
  <text x="450" y="30" font-family="Arial" font-size="24" font-weight="bold" text-anchor="middle">功能模块关系图</text>
  
  <!-- 核心框架 -->
  <rect x="350" y="60" width="200" height="60" rx="10" fill="#e8f5e8" stroke="#388e3c" stroke-width="3"/>
  <text x="450" y="85" font-family="Arial" font-size="16" font-weight="bold" text-anchor="middle">核心框架</text>
  <text x="450" y="105" font-family="Arial" font-size="12" text-anchor="middle">Spring Boot基础框架</text>
  
  <!-- 第一层模块 -->
  <rect x="50" y="180" width="140" height="50" rx="8" fill="#e3f2fd" stroke="#1976d2" stroke-width="2"/>
  <text x="120" y="200" font-family="Arial" font-size="14" font-weight="bold" text-anchor="middle">用户管理模块</text>
  <text x="120" y="218" font-family="Arial" font-size="10" text-anchor="middle">User Management</text>
  
  <rect x="210" y="180" width="140" height="50" rx="8" fill="#fff3e0" stroke="#f57c00" stroke-width="2"/>
  <text x="280" y="200" font-family="Arial" font-size="14" font-weight="bold" text-anchor="middle">权限管理模块</text>
  <text x="280" y="218" font-family="Arial" font-size="10" text-anchor="middle">Permission Management</text>
  
  <rect x="370" y="180" width="140" height="50" rx="8" fill="#f3e5f5" stroke="#7b1fa2" stroke-width="2"/>
  <text x="440" y="200" font-family="Arial" font-size="14" font-weight="bold" text-anchor="middle">数据字典模块</text>
  <text x="440" y="218" font-family="Arial" font-size="10" text-anchor="middle">Data Dictionary</text>
  
  <rect x="530" y="180" width="140" height="50" rx="8" fill="#e0f2f1" stroke="#00695c" stroke-width="2"/>
  <text x="600" y="200" font-family="Arial" font-size="14" font-weight="bold" text-anchor="middle">审计日志模块</text>
  <text x="600" y="218" font-family="Arial" font-size="10" text-anchor="middle">Audit Log</text>
  
  <rect x="710" y="180" width="140" height="50" rx="8" fill="#fce4ec" stroke="#c2185b" stroke-width="2"/>
  <text x="780" y="200" font-family="Arial" font-size="14" font-weight="bold" text-anchor="middle">数据权限模块</text>
  <text x="780" y="218" font-family="Arial" font-size="10" text-anchor="middle">Data Permission</text>
  
  <!-- 第二层模块 -->
  <rect x="210" y="280" width="140" height="50" rx="8" fill="#fff8e1" stroke="#ff8f00" stroke-width="2"/>
  <text x="280" y="300" font-family="Arial" font-size="14" font-weight="bold" text-anchor="middle">认证授权模块</text>
  <text x="280" y="318" font-family="Arial" font-size="10" text-anchor="middle">Authentication</text>
  
  <rect x="530" y="280" width="140" height="50" rx="8" fill="#f1f8e9" stroke="#689f38" stroke-width="2"/>
  <text x="600" y="300" font-family="Arial" font-size="14" font-weight="bold" text-anchor="middle">国际化模块</text>
  <text x="600" y="318" font-family="Arial" font-size="10" text-anchor="middle">Internationalization</text>
  
  <!-- 连接线和关系 -->
  <defs>
    <marker id="arrowhead" markerWidth="10" markerHeight="7" refX="9" refY="3.5" orient="auto">
      <polygon points="0 0, 10 3.5, 0 7" fill="#333"/>
    </marker>
    <marker id="dashedArrow" markerWidth="10" markerHeight="7" refX="9" refY="3.5" orient="auto">
      <polygon points="0 0, 10 3.5, 0 7" fill="#666"/>
    </marker>
  </defs>
  
  <!-- 核心框架到各模块的主连接 -->
  <line x1="450" y1="120" x2="120" y2="180" stroke="#388e3c" stroke-width="2" marker-end="url(#arrowhead)"/>
  <line x1="450" y1="120" x2="280" y2="180" stroke="#388e3c" stroke-width="2" marker-end="url(#arrowhead)"/>
  <line x1="450" y1="120" x2="440" y2="180" stroke="#388e3c" stroke-width="2" marker-end="url(#arrowhead)"/>
  <line x1="450" y1="120" x2="600" y2="180" stroke="#388e3c" stroke-width="2" marker-end="url(#arrowhead)"/>
  <line x1="450" y1="120" x2="780" y2="180" stroke="#388e3c" stroke-width="2" marker-end="url(#arrowhead)"/>
  <line x1="450" y1="120" x2="280" y2="280" stroke="#388e3c" stroke-width="2" marker-end="url(#arrowhead)"/>
  <line x1="450" y1="120" x2="600" y2="280" stroke="#388e3c" stroke-width="2" marker-end="url(#arrowhead)"/>
  
  <!-- 模块间关系线 -->
  <!-- 用户管理到认证授权 -->
  <line x1="120" y1="230" x2="280" y2="280" stroke="#1976d2" stroke-width="2" stroke-dasharray="5,5" marker-end="url(#dashedArrow)"/>
  <text x="180" y="255" font-family="Arial" font-size="10" text-anchor="middle">使用认证</text>
  
  <!-- 权限管理到用户管理 -->
  <line x1="280" y1="180" x2="190" y2="180" stroke="#f57c00" stroke-width="2" stroke-dasharray="5,5" marker-end="url(#dashedArrow)"/>
  <text x="235" y="170" font-family="Arial" font-size="10" text-anchor="middle">依赖</text>
  
  <!-- 审计日志到用户管理和权限管理 -->
  <line x1="600" y1="230" x2="280" y2="230" stroke="#00695c" stroke-width="2" stroke-dasharray="5,5" marker-end="url(#dashedArrow)"/>
  <line x1="600" y1="230" x2="440" y2="230" stroke="#00695c" stroke-width="2" stroke-dasharray="5,5" marker-end="url(#dashedArrow)"/>
  <text x="520" y="220" font-family="Arial" font-size="10" text-anchor="middle">记录操作</text>
  
  <!-- 数据权限到用户管理和权限管理 -->
  <line x1="780" y1="230" x2="600" y2="230" stroke="#c2185b" stroke-width="2" stroke-dasharray="5,5" marker-end="url(#dashedArrow)"/>
  <text x="690" y="220" font-family="Arial" font-size="10" text-anchor="middle">控制访问</text>
  
  <!-- 数据字典到核心框架 -->
  <line x1="440" y1="230" x2="450" y2="120" stroke="#7b1fa2" stroke-width="2" stroke-dasharray="5,5" marker-end="url(#dashedArrow)"/>
  <text x="445" y="170" font-family="Arial" font-size="10" text-anchor="middle">提供配置</text>
  
  <!-- 认证授权到核心框架 -->
  <line x1="280" y1="280" x2="450" y2="120" stroke="#ff8f00" stroke-width="2" stroke-dasharray="5,5" marker-end="url(#dashedArrow)"/>
  <text x="350" y="200" font-family="Arial" font-size="10" text-anchor="middle">提供认证</text>
  
  <!-- 国际化到核心框架 -->
  <line x1="600" y1="280" x2="450" y2="120" stroke="#689f38" stroke-width="2" stroke-dasharray="5,5" marker-end="url(#dashedArrow)"/>
  <text x="520" y="200" font-family="Arial" font-size="10" text-anchor="middle">支持国际化</text>
  
  <!-- 图例 -->
  <rect x="50" y="380" width="250" height="200" rx="10" fill="#f5f5f5" stroke="#999" stroke-width="1"/>
  <text x="175" y="405" font-family="Arial" font-size="14" font-weight="bold" text-anchor="middle">关系图例</text>
  
  <line x1="70" y1="430" x2="120" y2="430" stroke="#388e3c" stroke-width="3"/>
  <text x="130" y="435" font-family="Arial" font-size="11" text-anchor="start">核心框架依赖</text>
  
  <line x1="70" y1="455" x2="120" y2="455" stroke="#1976d2" stroke-width="2" stroke-dasharray="5,5"/>
  <text x="130" y="460" font-family="Arial" font-size="11" text-anchor="start">模块交互关系</text>
  
  <line x1="70" y1="480" x2="120" y2="480" stroke="#7b1fa2" stroke-width="2" stroke-dasharray="5,5"/>
  <text x="130" y="485" font-family="Arial" font-size="11" text-anchor="start">功能支持关系</text>
  
  <!-- 模块说明 -->
  <text x="350" y="400" font-family="Arial" font-size="12" font-weight="bold">核心模块说明：</text>
  <text x="350" y="420" font-family="Arial" font-size="10">• 用户管理：用户CRUD、状态管理、多客户端支持</text>
  <text x="350" y="435" font-family="Arial" font-size="10">• 权限管理：RBAC三层权限控制、角色分配</text>
  <text x="350" y="450" font-family="Arial" font-size="10">• 数据字典：统一字典管理、缓存机制</text>
  <text x="350" y="465" font-family="Arial" font-size="10">• 审计日志：操作记录、变更跟踪</text>
  <text x="350" y="480" font-family="Arial" font-size="10">• 数据权限：精细化访问控制、动态SQL</text>
  <text x="350" y="495" font-family="Arial" font-size="10">• 认证授权：JWT令牌、多客户端认证</text>
  <text x="350" y="510" font-family="Arial" font-size="10">• 国际化：多语言支持、错误码国际化</text>
</svg>