<?xml version="1.0" encoding="UTF-8"?>
<svg width="1000" height="600" xmlns="http://www.w3.org/2000/svg">
  <!-- 标题 -->
  <text x="500" y="25" text-anchor="middle" font-family="Arial" font-size="18" font-weight="bold" fill="#333">
    系统通知推送系统架构图
  </text>

  <!-- 前端层 -->
  <rect x="50" y="50" width="120" height="60" fill="#e3f2fd" stroke="#1976d2" stroke-width="2"/>
  <text x="110" y="70" text-anchor="middle" font-family="Arial" font-size="12" font-weight="bold">Web前端</text>
  <text x="110" y="85" text-anchor="middle" font-family="Arial" font-size="9">React/Vue.js</text>
  <text x="110" y="100" text-anchor="middle" font-family="Arial" font-size="9">多端访问</text>

  <rect x="190" y="50" width="120" height="60" fill="#e3f2fd" stroke="#1976d2" stroke-width="2"/>
  <text x="250" y="70" text-anchor="middle" font-family="Arial" font-size="12" font-weight="bold">移动端APP</text>
  <text x="250" y="85" text-anchor="middle" font-family="Arial" font-size="9">iOS/Android</text>
  <text x="250" y="100" text-anchor="middle" font-family="Arial" font-size="9">原生应用</text>

  <rect x="330" y="50" width="120" height="60" fill="#e3f2fd" stroke="#1976d2" stroke-width="2"/>
  <text x="390" y="70" text-anchor="middle" font-family="Arial" font-size="12" font-weight="bold">管理后台</text>
  <text x="390" y="85" text-anchor="middle" font-family="Arial" font-size="9">Admin System</text>
  <text x="390" y="100" text-anchor="middle" font-family="Arial" font-size="9">后台管理</text>

  <!-- 网关层 -->
  <rect x="150" y="140" width="200" height="40" fill="#f3e5f5" stroke="#7b1fa2" stroke-width="2"/>
  <text x="250" y="160" text-anchor="middle" font-family="Arial" font-size="12" font-weight="bold">API Gateway</text>
  <text x="250" y="175" text-anchor="middle" font-family="Arial" font-size="9">Spring Cloud Gateway</text>

  <!-- 服务层 -->
  <rect x="50" y="220" width="140" height="60" fill="#e8f5e8" stroke="#388e3c" stroke-width="2"/>
  <text x="120" y="240" text-anchor="middle" font-family="Arial" font-size="12" font-weight="bold">通知服务层</text>
  <text x="120" y="255" text-anchor="middle" font-family="Arial" font-size="9">Notification</text>
  <text x="120" y="270" text-anchor="middle" font-family="Arial" font-size="9">通知管理 | 推送调度</text>

  <rect x="210" y="220" width="140" height="60" fill="#e8f5e8" stroke="#388e3c" stroke-width="2"/>
  <text x="280" y="240" text-anchor="middle" font-family="Arial" font-size="12" font-weight="bold">消息服务层</text>
  <text x="280" y="255" text-anchor="middle" font-family="Arial" font-size="9">Message Service</text>
  <text x="280" y="270" text-anchor="middle" font-family="Arial" font-size="9">消息处理 | 状态管理</text>

  <!-- 业务逻辑层 -->
  <rect x="100" y="320" width="200" height="80" fill="#fff3e0" stroke="#f57c00" stroke-width="2"/>
  <text x="200" y="340" text-anchor="middle" font-family="Arial" font-size="12" font-weight="bold">业务逻辑层</text>
  <text x="140" y="360" text-anchor="middle" font-family="Arial" font-size="9">通知处理器</text>
  <text x="140" y="372" text-anchor="middle" font-family="Arial" font-size="9">规则引擎 | 权限验证</text>
  <text x="260" y="360" text-anchor="middle" font-family="Arial" font-size="9">消息推送器</text>
  <text x="260" y="372" text-anchor="middle" font-family="Arial" font-size="9">推送策略 | 渠道适配</text>

  <!-- 数据层 -->
  <rect x="50" y="440" width="140" height="60" fill="#fce4ec" stroke="#c2185b" stroke-width="2"/>
  <text x="120" y="460" text-anchor="middle" font-family="Arial" font-size="12" font-weight="bold">数据访问层</text>
  <text x="120" y="475" text-anchor="middle" font-family="Arial" font-size="9">MyBatis Plus</text>
  <text x="120" y="490" text-anchor="middle" font-family="Arial" font-size="9">数据持久化 | 事务管理</text>

  <rect x="210" y="440" width="140" height="60" fill="#fce4ec" stroke="#c2185b" stroke-width="2"/>
  <text x="280" y="460" text-anchor="middle" font-family="Arial" font-size="12" font-weight="bold">缓存层</text>
  <text x="280" y="475" text-anchor="middle" font-family="Arial" font-size="9">Redis Cache</text>
  <text x="280" y="490" text-anchor="middle" font-family="Arial" font-size="9">热点数据 | 会话状态</text>

  <!-- 数据库层 -->
  <rect x="150" y="540" width="200" height="40" fill="#fce4ec" stroke="#c2185b" stroke-width="2"/>
  <text x="250" y="560" text-anchor="middle" font-family="Arial" font-size="12" font-weight="bold">数据库层 & 消息队列</text>

  <!-- 右侧说明 -->
  <text x="500" y="80" font-family="Arial" font-size="14" font-weight="bold" fill="#333">架构特点</text>
  <text x="500" y="105" font-family="Arial" font-size="10" fill="#333">• 前后端分离架构</text>
  <text x="500" y="120" font-family="Arial" font-size="10" fill="#333">• 微服务架构设计</text>
  <text x="500" y="135" font-family="Arial" font-size="10" fill="#333">• 多层缓存机制</text>
  <text x="500" y="150" font-family="Arial" font-size="10" fill="#333">• 异步消息处理</text>
  <text x="500" y="165" font-family="Arial" font-size="10" fill="#333">• 实时推送能力</text>

  <text x="500" y="200" font-family="Arial" font-size="14" font-weight="bold" fill="#333">技术栈</text>
  <text x="500" y="225" font-family="Arial" font-size="10" fill="#333">• Spring Boot 2.7.x</text>
  <text x="500" y="240" font-family="Arial" font-size="10" fill="#333">• Redis + MySQL</text>
  <text x="500" y="255" font-family="Arial" font-size="10" fill="#333">• RabbitMQ</text>
  <text x="500" y="270" font-family="Arial" font-size="10" fill="#333">• WebSocket</text>
  <text x="500" y="285" font-family="Arial" font-size="10" fill="#333">• MongoDB</text>

  <!-- 连接线 -->
  <line x1="110" y1="110" x2="110" y2="140" stroke="#616161" stroke-width="2"/>
  <line x1="250" y1="110" x2="250" y2="140" stroke="#616161" stroke-width="2"/>
  <line x1="390" y1="110" x2="390" y2="140" stroke="#616161" stroke-width="2"/>

  <line x1="200" y1="180" x2="120" y2="220" stroke="#616161" stroke-width="2"/>
  <line x1="300" y1="180" x2="280" y2="220" stroke="#616161" stroke-width="2"/>

  <line x1="120" y1="280" x2="180" y2="320" stroke="#616161" stroke-width="2"/>
  <line x1="280" y1="280" x2="220" y2="320" stroke="#616161" stroke-width="2"/>

  <line x1="180" y1="400" x2="120" y2="440" stroke="#616161" stroke-width="2"/>
  <line x1="220" y1="400" x2="280" y2="440" stroke="#616161" stroke-width="2"/>

  <line x1="120" y1="500" x2="200" y2="540" stroke="#616161" stroke-width="2"/>
  <line x1="280" y1="500" x2="300" y2="540" stroke="#616161" stroke-width="2"/>

  <!-- 箭头 -->
  <polygon points="110,140 105,135 115,135" fill="#616161"/>
  <polygon points="250,140 245,135 255,135" fill="#616161"/>
  <polygon points="390,140 385,135 395,135" fill="#616161"/>
  <polygon points="120,220 115,215 125,215" fill="#616161"/>
  <polygon points="280,220 275,215 285,215" fill="#616161"/>
  <polygon points="180,320 175,315 185,315" fill="#616161"/>
  <polygon points="220,320 215,315 225,315" fill="#616161"/>
  <polygon points="120,440 115,435 125,435" fill="#616161"/>
  <polygon points="280,440 275,435 285,435" fill="#616161"/>
  <polygon points="200,540 195,535 205,535" fill="#616161"/>
  <polygon points="300,540 295,535 305,535" fill="#616161"/>
</svg>