<?xml version="1.0" encoding="UTF-8" standalone="no"?>
<svg xmlns="http://www.w3.org/2000/svg" width="1000" height="700" viewBox="0 0 1000 700">
  <!-- 背景 -->
  <rect width="1000" height="700" fill="#ffffff"/>
  
  <!-- 标题 -->
  <text x="500" y="30" font-family="Arial" font-size="24" font-weight="bold" text-anchor="middle">系统整体架构图</text>
  
  <!-- 前端层 -->
  <rect x="50" y="80" width="200" height="80" rx="10" fill="#e3f2fd" stroke="#1976d2" stroke-width="2"/>
  <text x="150" y="110" font-family="Arial" font-size="16" font-weight="bold" text-anchor="middle">前端层</text>
  <text x="150" y="130" font-family="Arial" font-size="12" text-anchor="middle">前端应用</text>
  <text x="150" y="145" font-family="Arial" font-size="12" text-anchor="middle">API请求</text>
  
  <!-- 接口层 -->
  <rect x="350" y="80" width="200" height="80" rx="10" fill="#f3e5f5" stroke="#7b1fa2" stroke-width="2"/>
  <text x="450" y="110" font-family="Arial" font-size="16" font-weight="bold" text-anchor="middle">接口层</text>
  <text x="450" y="130" font-family="Arial" font-size="12" text-anchor="middle">Controller控制器</text>
  <text x="450" y="145" font-family="Arial" font-size="12" text-anchor="middle">过滤器/拦截器</text>
  
  <!-- 业务层 -->
  <rect x="50" y="220" width="900" height="100" rx="10" fill="#e8f5e8" stroke="#388e3c" stroke-width="2"/>
  <text x="500" y="245" font-family="Arial" font-size="16" font-weight="bold" text-anchor="middle">业务层</text>
  
  <!-- 业务服务组件 -->
  <rect x="100" y="270" width="140" height="30" rx="5" fill="#ffffff" stroke="#388e3c" stroke-width="1"/>
  <text x="170" y="290" font-family="Arial" font-size="12" text-anchor="middle">认证授权过滤器</text>
  
  <rect x="260" y="270" width="140" height="30" rx="5" fill="#ffffff" stroke="#388e3c" stroke-width="1"/>
  <text x="330" y="290" font-family="Arial" font-size="12" text-anchor="middle">JWT拦截器</text>
  
  <rect x="420" y="270" width="140" height="30" rx="5" fill="#ffffff" stroke="#388e3c" stroke-width="1"/>
  <text x="490" y="290" font-family="Arial" font-size="12" text-anchor="middle">国际化过滤器</text>
  
  <rect x="580" y="270" width="140" height="30" rx="5" fill="#ffffff" stroke="#388e3c" stroke-width="1"/>
  <text x="650" y="290" font-family="Arial" font-size="12" text-anchor="middle">业务服务Service</text>
  
  <!-- 数据访问层 -->
  <rect x="50" y="380" width="500" height="80" rx="10" fill="#fff3e0" stroke="#f57c00" stroke-width="2"/>
  <text x="300" y="410" font-family="Arial" font-size="16" font-weight="bold" text-anchor="middle">数据访问层</text>
  <text x="300" y="430" font-family="Arial" font-size="12" text-anchor="middle">数据访问Mapper</text>
  <text x="300" y="445" font-family="Arial" font-size="12" text-anchor="middle">MySQL数据库 + 缓存系统</text>
  
  <!-- 基础设施层 -->
  <rect x="600" y="380" width="350" height="80" rx="10" fill="#fce4ec" stroke="#c2185b" stroke-width="2"/>
  <text x="775" y="410" font-family="Arial" font-size="16" font-weight="bold" text-anchor="middle">基础设施层</text>
  <text x="775" y="430" font-family="Arial" font-size="12" text-anchor="middle">数据库连接池 + Redis缓存</text>
  <text x="775" y="445" font-family="Arial" font-size="12" text-anchor="middle">异常处理 + 日志系统</text>
  
  <!-- 连接箭头 -->
  <defs>
    <marker id="arrowhead" markerWidth="10" markerHeight="7" refX="9" refY="3.5" orient="auto">
      <polygon points="0 0, 10 3.5, 0 7" fill="#333"/>
    </marker>
  </defs>
  
  <!-- 前端层到接口层 -->
  <line x1="250" y1="120" x2="350" y2="120" stroke="#333" stroke-width="2" marker-end="url(#arrowhead)"/>
  
  <!-- 接口层到业务层 -->
  <line x1="450" y1="160" x2="450" y2="220" stroke="#333" stroke-width="2" marker-end="url(#arrowhead)"/>
  
  <!-- 业务层内部连接 -->
  <line x1="170" y1="300" x2="260" y2="285" stroke="#388e3c" stroke-width="1" marker-end="url(#arrowhead)"/>
  <line x1="330" y1="300" x2="420" y2="285" stroke="#388e3c" stroke-width="1" marker-end="url(#arrowhead)"/>
  <line x1="490" y1="300" x2="580" y2="285" stroke="#388e3c" stroke-width="1" marker-end="url(#arrowhead)"/>
  
  <!-- 业务层到数据访问层 -->
  <line x1="300" y1="320" x2="300" y2="380" stroke="#333" stroke-width="2" marker-end="url(#arrowhead)"/>
  
  <!-- 数据访问层到基础设施层 -->
  <line x1="550" y1="420" x2="600" y2="420" stroke="#333" stroke-width="2" marker-end="url(#arrowhead)"/>
  
  <!-- 图例 -->
  <rect x="50" y="520" width="200" height="150" rx="10" fill="#f5f5f5" stroke="#999" stroke-width="1"/>
  <text x="150" y="545" font-family="Arial" font-size="14" font-weight="bold" text-anchor="middle">图例</text>
  
  <rect x="70" y="560" width="20" height="15" rx="3" fill="#e3f2fd" stroke="#1976d2" stroke-width="1"/>
  <text x="100" y="572" font-family="Arial" font-size="12" text-anchor="start">表示界面层</text>
  
  <rect x="70" y="585" width="20" height="15" rx="3" fill="#f3e5f5" stroke="#7b1fa2" stroke-width="1"/>
  <text x="100" y="597" font-family="Arial" font-size="12" text-anchor="start">表示接口层</text>
  
  <rect x="70" y="610" width="20" height="15" rx="3" fill="#e8f5e8" stroke="#388e3c" stroke-width="1"/>
  <text x="100" y="622" font-family="Arial" font-size="12" text-anchor="start">表示业务逻辑</text>
  
  <rect x="70" y="635" width="20" height="15" rx="3" fill="#fff3e0" stroke="#f57c00" stroke-width="1"/>
  <text x="100" y="647" font-family="Arial" font-size="12" text-anchor="start">表示数据存储</text>
</svg>