<?xml version="1.0" encoding="UTF-8" standalone="no"?>
<svg xmlns="http://www.w3.org/2000/svg" width="1000" height="600" viewBox="0 0 1000 600">
  <!-- 背景 -->
  <rect width="1000" height="600" fill="#ffffff"/>
  
  <!-- 标题 -->
  <text x="500" y="30" font-family="Arial" font-size="24" font-weight="bold" text-anchor="middle">技术栈与架构层次图</text>
  
  <!-- 应用层 -->
  <rect x="50" y="80" width="200" height="300" rx="10" fill="#e8f5e8" stroke="#388e3c" stroke-width="2"/>
  <text x="150" y="105" font-family="Arial" font-size="16" font-weight="bold" text-anchor="middle">应用层</text>
  <text x="150" y="125" font-family="Arial" font-size="14" text-anchor="middle">业务模块</text>
  
  <!-- 应用层组件 -->
  <rect x="70" y="150" width="160" height="30" rx="5" fill="#ffffff" stroke="#388e3c" stroke-width="1"/>
  <text x="150" y="170" font-family="Arial" font-size="12" text-anchor="middle">用户管理</text>
  
  <rect x="70" y="190" width="160" height="30" rx="5" fill="#ffffff" stroke="#388e3c" stroke-width="1"/>
  <text x="150" y="210" font-family="Arial" font-size="12" text-anchor="middle">权限管理</text>
  
  <rect x="70" y="230" width="160" height="30" rx="5" fill="#ffffff" stroke="#388e3c" stroke-width="1"/>
  <text x="150" y="250" font-family="Arial" font-size="12" text-anchor="middle">数据字典</text>
  
  <rect x="70" y="270" width="160" height="30" rx="5" fill="#ffffff" stroke="#388e3c" stroke-width="1"/>
  <text x="150" y="290" font-family="Arial" font-size="12" text-anchor="middle">审计日志</text>
  
  <rect x="70" y="310" width="160" height="30" rx="5" fill="#ffffff" stroke="#388e3c" stroke-width="1"/>
  <text x="150" y="330" font-family="Arial" font-size="12" text-anchor="middle">数据权限</text>
  
  <!-- 框架层 -->
  <rect x="300" y="80" width="200" height="300" rx="10" fill="#e3f2fd" stroke="#1976d2" stroke-width="2"/>
  <text x="400" y="105" font-family="Arial" font-size="16" font-weight="bold" text-anchor="middle">框架层</text>
  <text x="400" y="125" font-family="Arial" font-size="14" text-anchor="middle">Spring Boot</text>
  
  <!-- 框架层组件 -->
  <rect x="320" y="150" width="160" height="25" rx="5" fill="#ffffff" stroke="#1976d2" stroke-width="1"/>
  <text x="400" y="167" font-family="Arial" font-size="12" text-anchor="middle">Spring MVC</text>
  
  <rect x="320" y="180" width="160" height="25" rx="5" fill="#ffffff" stroke="#1976d2" stroke-width="1"/>
  <text x="400" y="197" font-family="Arial" font-size="12" text-anchor="middle">Spring Security</text>
  
  <rect x="320" y="210" width="160" height="25" rx="5" fill="#ffffff" stroke="#1976d2" stroke-width="1"/>
  <text x="400" y="227" font-family="Arial" font-size="12" text-anchor="middle">Spring Cache</text>
  
  <rect x="320" y="240" width="160" height="25" rx="5" fill="#ffffff" stroke="#1976d2" stroke-width="1"/>
  <text x="400" y="257" font-family="Arial" font-size="12" text-anchor="middle">Spring AOP</text>
  
  <rect x="320" y="270" width="160" height="25" rx="5" fill="#ffffff" stroke="#1976d2" stroke-width="1"/>
  <text x="400" y="287" font-family="Arial" font-size="12" text-anchor="middle">Spring MessageSource</text>
  
  <!-- 数据层 -->
  <rect x="550" y="80" width="200" height="300" rx="10" fill="#fff3e0" stroke="#f57c00" stroke-width="2"/>
  <text x="650" y="105" font-family="Arial" font-size="16" font-weight="bold" text-anchor="middle">数据层</text>
  <text x="650" y="125" font-family="Arial" font-size="14" text-anchor="middle">数据访问技术</text>
  
  <!-- 数据层组件 -->
  <rect x="570" y="150" width="160" height="25" rx="5" fill="#ffffff" stroke="#f57c00" stroke-width="1"/>
  <text x="650" y="167" font-family="Arial" font-size="12" text-anchor="middle">MyBatis Plus</text>
  
  <rect x="570" y="180" width="160" height="25" rx="5" fill="#ffffff" stroke="#f57c00" stroke-width="1"/>
  <text x="650" y="197" font-family="Arial" font-size="12" text-anchor="middle">Spring Data JPA</text>
  
  <rect x="570" y="210" width="160" height="25" rx="5" fill="#ffffff" stroke="#f57c00" stroke-width="1"/>
  <text x="650" y="227" font-family="Arial" font-size="12" text-anchor="middle">Spring Cache</text>
  
  <rect x="570" y="240" width="160" height="25" rx="5" fill="#ffffff" stroke="#f57c00" stroke-width="1"/>
  <text x="650" y="257" font-family="Arial" font-size="12" text-anchor="middle">MySQL数据库</text>
  
  <rect x="570" y="270" width="160" height="25" rx="5" fill="#ffffff" stroke="#f57c00" stroke-width="1"/>
  <text x="650" y="287" font-family="Arial" font-size="12" text-anchor="middle">Redis缓存</text>
  
  <!-- 工具层 -->
  <rect x="800" y="80" width="150" height="300" rx="10" fill="#f3e5f5" stroke="#7b1fa2" stroke-width="2"/>
  <text x="875" y="105" font-family="Arial" font-size="16" font-weight="bold" text-anchor="middle">工具层</text>
  <text x="875" y="125" font-family="Arial" font-size="14" text-anchor="middle">开发工具</text>
  
  <!-- 工具层组件 -->
  <rect x="820" y="150" width="110" height="25" rx="5" fill="#ffffff" stroke="#7b1fa2" stroke-width="1"/>
  <text x="875" y="167" font-family="Arial" font-size="12" text-anchor="middle">Lombok</text>
  
  <rect x="820" y="180" width="110" height="25" rx="5" fill="#ffffff" stroke="#7b1fa2" stroke-width="1"/>
  <text x="875" y="197" font-family="Arial" font-size="12" text-anchor="middle">Fastjson</text>
  
  <rect x="820" y="210" width="110" height="25" rx="5" fill="#ffffff" stroke="#7b1fa2" stroke-width="1"/>
  <text x="875" y="227" font-family="Arial" font-size="12" text-anchor="middle">Hutool</text>
  
  <rect x="820" y="240" width="110" height="25" rx="5" fill="#ffffff" stroke="#7b1fa2" stroke-width="1"/>
  <text x="875" y="257" font-family="Arial" font-size="12" text-anchor="middle">JWT</text>
  
  <rect x="820" y="270" width="110" height="25" rx="5" fill="#ffffff" stroke="#7b1fa2" stroke-width="1"/>
  <text x="875" y="287" font-family="Arial" font-size="12" text-anchor="middle">Maven</text>
  
  <!-- 连接箭头 -->
  <defs>
    <marker id="arrowhead" markerWidth="10" markerHeight="7" refX="9" refY="3.5" orient="auto">
      <polygon points="0 0, 10 3.5, 0 7" fill="#333"/>
    </marker>
  </defs>
  
  <!-- 应用层到框架层 -->
  <line x1="250" y1="230" x2="300" y2="230" stroke="#333" stroke-width="2" marker-end="url(#arrowhead)"/>
  <text x="275" y="220" font-family="Arial" font-size="12" text-anchor="middle">调用</text>
  
  <!-- 框架层到数据层 -->
  <line x1="500" y1="230" x2="550" y2="230" stroke="#333" stroke-width="2" marker-end="url(#arrowhead)"/>
  <text x="525" y="220" font-family="Arial" font-size="12" text-anchor="middle">依赖</text>
  
  <!-- 数据层到工具层 -->
  <line x1="750" y1="230" x2="800" y2="230" stroke="#333" stroke-width="2" marker-end="url(#arrowhead)"/>
  <text x="775" y="220" font-family="Arial" font-size="12" text-anchor="middle">使用</text>
  
  <!-- 图例 -->
  <rect x="50" y="420" width="250" height="160" rx="10" fill="#f5f5f5" stroke="#999" stroke-width="1"/>
  <text x="175" y="445" font-family="Arial" font-size="14" font-weight="bold" text-anchor="middle">架构层次说明</text>
  
  <rect x="70" y="460" width="20" height="15" rx="3" fill="#e8f5e8" stroke="#388e3c" stroke-width="1"/>
  <text x="100" y="472" font-family="Arial" font-size="12" text-anchor="start">业务模块层 - 实现具体业务功能</text>
  
  <rect x="70" y="485" width="20" height="15" rx="3" fill="#e3f2fd" stroke="#1976d2" stroke-width="1"/>
  <text x="100" y="497" font-family="Arial" font-size="12" text-anchor="start">框架层 - 提供基础框架支持</text>
  
  <rect x="70" y="510" width="20" height="15" rx="3" fill="#fff3e0" stroke="#f57c00" stroke-width="1"/>
  <text x="100" y="522" font-family="Arial" font-size="12" text-anchor="start">数据层 - 数据访问和存储</text>
  
  <rect x="70" y="535" width="20" height="15" rx="3" fill="#f3e5f5" stroke="#7b1fa2" stroke-width="1"/>
  <text x="100" y="547" font-family="Arial" font-size="12" text-anchor="start">工具层 - 开发效率工具</text>
</svg>